<svg xmlns="http://www.w3.org/2000/svg" viewBox="11.85 8.72 68.92 38.63">
  <path class="logo-svg-file" d="m14.18021738 27.81505604-.30459409 2.47876089-.30449487 2.47876079-.30449488 2.47876078-.30449487 2.47876079-.30449488 2.47876079-.30459408 2.47876089-.30449487 2.47876078-.19900643 1.61982582.0464233.00184902.90585047.03570578.90585047.03570578.90585047.03570578.90585046.03570577.90575127.03570589.90585047.03570577.90664411.03570497.89344972.03571853.89344999.0356187.89344972.03571853.89344972.03571852.89344972.03571853.89335051.03571863.89344972.03571853.54745793.02169893.56242142-.56121637.80881536-.80664905.80881535-.80664905.80891456-.80664915.80891456-.80664915.80891456-.80664916.8089143-.80654932.81299276-.8106465.80878254-.7944699.80878253-.79446992.80878227-.79437008.80878253-.79446991.80878227-.79437008.80878254-.79446992.80878226-.79437008.80888175-.79447001.02824928-.02778143.02904509-.02858088.02904508-.02858088.02904509-.02858088.02904509-.02858088.02904508-.02858087.02904509-.02858088.02904508-.02858088.04047605-.00004162.04047605-.00004161.04047605-.00004162.04047605-.00004161.04047604-.00004162.04047605-.00004162.04047605-.00004161.04047605-.00004162.99275444-.00102071.99285365-.00102082.99285365-.00102081.99285364-.00102082.99275445-.00102071.99285364-.00102082.99275445-.00102071.99285364-.00102082.99275445-.00102071.99285364-.00102082.99285365-.00102082.99285365-.00102081.99275444-.00102072.99285365-.00102081.99275444-.00102072.99285365-.00102081.03998002-.0000411.03998002-.00004111.03998001-.00004111.03998002-.0000411.03998002-.00004111.03998002-.0000411.03998002-.00004111.03998001-.00004111.0286947.02782271.02869468.02782271.0286947.02782271.02869468.02782271.02909044.02822162.02879335.02802227.0282.02732408.02948646.0285207.81690619.79279843.81690645.79269861.81690619.79279844.81700566.7926985.81690619.79279844.81690645.79269861.81690619.79279844.81700539.79279834.81690645.7926986.8170054.79279834.81690618.79279844.81690646.7926986.81690618.79279845.81700566.7926985.81690619.79279844.58655718.56941894.5737083-.00058987.89354844-.00091871.89344923-.00091862.89354845-.00091871.89354844-.00091871.89354844-.00091872.89344924-.00091861.89354844-.00091871.88114769-.00090597.8811477-.00090596.88104848-.00090586.88114769-.00090597.8811477-.00090596.88114768-.00090597.88104849-.00090586.09484094-.00009751-.1123012.00011546.01358649.11219352-.208169-1.71723933-.30347279-2.50259373-.303572-2.50259363-.3034728-2.50259374-.303572-2.50259363-.30347279-2.50259373-.30357227-2.5024938-.30425568-2.50658608-.29107204-2.50260649-.29107205-2.50260648-.29117125-2.50260638-.29107231-2.50250666-.29107204-2.50260648-.29107205-2.50260649-.29117125-2.50260638-.20903995-1.79899815-.67341033.00069237-1.3774753.00141627-1.37757452.00141637-1.37747531.00141627-1.37757452.00141638-1.3774753.00141627-1.37757452.00141637-1.37747531.00141627-1.37757452.00141637-1.3774753.00141627-1.37757452.00141637-1.37747531.00141627-1.37757452.00141637-1.37747531.00141627-1.37757452.00141638-1.04731774.00107681-.18990073.1918664-.42307471.42780175-.42317364.42770203-.42307471.42780176-.42307444.42770192-.4230747.42780176-.42317392.42780186-.43103244.4356964c-.24200842.23784119-.49423532.4757927-.74226168.7011615-.2483264.22626754-.5043844.45014715-.75296135.65894493-.24837853.20879758-.50230264.4139072-.74546597.60173538-.24346148.18802815-.49097507.37037022-.72365156.53213232-.23327253.1620622-.46970083.31713964-.68662126.44863745-.21930568.1330975-.44692368.25841693-.64430667.3553539-.203637.09844084-.43096728.19061683-.61038692.24810299-.19043017.05699833-.43748437.10566928-.6229996.10586002-.18650727.00019176-.44073373-.05065916-.62966865-.1067683-.17950712-.05731679-.40069147-.14743437-.60340225-.24545741-.19735742-.09663095-.42231988-.22048676-.64051293-.35303462-.21631163-.13125202-.4522031-.28584384-.6846038-.44732743-.2317068-.16128464-.47823882-.34321858-.72058911-.53074724-.24175695-.18683046-.49497472-.39111916-.74282245-.60020517-.24705623-.20828819-.50171071-.4316427-.74881988-.65710138-.24691157-.22515939-.50577246-.47057173-.74650044-.70791658l-.4207718-.42683431-.42077152-.42693415-.42087074-.42693404-.4207718-.42683431-.42077153-.42693414-.4207718-.42683432-.42087073-.42693404-.18886777-.19147696-1.04741695.00107691-1.37747531.00141627-1.37757452.00141638-1.3774753.00141627-1.37757452.00141637-1.37747531.00141627-1.37757452.00141637-1.3774753.00141627-1.38997527.00142912-1.38987606.00142902-1.38997527.00142912-1.38997527.00142913-1.38997526.00142912-1.38987606.00142902-1.38997527.00142912-.68670393.00070604-.21764985 1.76439699-.30446205 2.46658164-.30456126 2.46658175-.30446206 2.46658165-.30446206 2.46658165-.30446206 2.46658165-.30456126 2.46658175-.30446206 2.46658165m27.71205625-11.42354199.61878987.64645357.61878988.64645357.61878987.64645356.61869066.64645367.61878988.64645357.61878987.64645357.6187896.6465534.05440997.05684643.0616772-.06295551.63467766-.64764251.6346774-.64754268.63467794-.64774234.63467794-.64774234.63467793-.64774234.63467794-.64774233.63457873-.64774224.63467794-.64774234.63467794-.64774234.63467794-.64774233.63457873-.64774224.63467794-.64774234.63467794-.64774234.63467793-.64774233.63457847-.64764241.03063964-.0312779.03063965-.03127789.03063964-.03127789.03063965-.0312779.03063964-.03127789.03063965-.03127789.03063964-.0312779.03063965-.03127789.0435474.00145266.0435474.00145266.0435474.00145266.0435474.00145265.0435474.00145266.0435474.00145266.04354739.00145265.0435474.00145266 1.0672589.03544 1.06715942.03553992 1.06715943.03553993 1.06715942.03553993 1.06715943.03553992 1.06715942.03553993 1.06715943.03553993 1.06715942.03553993 1.07956045.03542734 1.07956017.03552718 1.07965938.03552708 1.07956018.03552717 1.07956017.03552718 1.07956018.03552718 1.07965938.03552707 1.07886573.0355279.08501201.0027078.08511122.00270769.08511122.0027077.08511121.00270769.08511122.0027077.08511121.0027077.08511122.00270769.08511121.0027077.00988983.0850439.00988982.0850439.00988983.0850439.00988982.0850439.00988983.08504391.00988982.0850439.00988982.08504391.00988983.0850439.20624098 1.7700507.20614151 1.77015064.20624072 1.77015053.20624071 1.77015054.20624099 1.7700507.2061415 1.77015063.20624073 1.77015053.2061415 1.77015064c.27890533 2.415768.52615421 4.50383086.73557942 6.30712125.20942278 1.80418885.38180343 3.32809674.51019317 4.61016486.12848034 1.28526254.21361713 2.34615468.24801344 3.20334856.03357443.86767675.01367946 1.58716281-.06307695 2.12871273-.0949082.57730726-.30369058 1.11260388-.55172303 1.4506793l-.00308668.00419597-.00348216.00369725c-.29938591.32505065-.78745997.61285954-1.21413519.72011496-.39247007.0781701-.88686091.09624827-1.37016457.086363-.47605973-.01059152-1.00733525-.03669955-1.60802758-.03608194-.4910697.0005049-.95235473-.00750627-1.37539946-.03262746-.42611769-.0260165-.85148256-.0736966-1.24047106-.14627145-.39096482-.07546785-.8026588-.1895481-1.18143838-.33231305-.37530173-.14486492-.78141423-.34220807-1.1690897-.57071674-.38182447-.22771606-.79791363-.51469514-1.22083907-.84179835-.41886365-.32501097-.87793332-.71337185-1.36949624-1.15570666-.48997965-.44083901-1.03026956-.95050811-1.62523719-1.52810435-.59427534-.57679833-1.25104631-1.22870342-1.98289487-1.9620914l-.79171001-.7920257-.79250151-.79282354-.79210469-.79282394-.79210495-.7927241-.79210469-.79282394-.79210495-.79272411-.79210469-.79282394-.56019017-.56135992-.86438188.00088873-1.19136485.00122492-1.19136486.00122491-1.19136485.00122492-1.19136485.00122492-1.19146406.00122502-1.19136486.00122492-1.19136485.00122492-1.19136486.00122491-1.19136485.00122492-1.19136485.00122492-1.19136486.00122492-1.19136485.00122492-1.19146406.00122502-1.19136486.00122491-.86438187.00088873-.5632175.56211565-.7963826.79475665-.79638178.79445716-.79638179.79445716-.79638151.79435734-.79638179.79445716-.79638179.79445716-.79638178.79445716c-.7481044.73411098-1.42189506 1.39137726-2.026325 1.96910856-.60462999.57833048-1.15193331 1.08831918-1.64796155 1.5299723-.4978169.44275308-.96106434.83166294-1.38376438 1.1572397-.42736946.32807727-.8465932.61531623-1.23311974.84402193-.39208343.22921056-.80283286.42729375-1.18506815.57293754-.38500633.14315093-.80545255.25818659-1.20664764.33446891-.39920344.07348508-.83782308.12185383-1.2799563.14876303-.43915462.02600768-.920525.03498805-1.43609858.03551814l-.54602983.0005614-.54612903.00056152-.54602982.0005614-.54602983.00056141-.54602982.00056141-.54602982.00056141-.54602983.0005614-.54602982.00056142-.11478134.00011801-.11468214.00011791-.11468213.00011792-.11468214.0001179-.11468214.00011792-.11468213.00011791-.11468214.00011791-.11468214.00011792.01677594-.11422131.01677593-.11422131.01677593-.1142213.01677593-.11422132.01677593-.1142213.01677594-.11422131.01677593-.11422131.0168754-.11432124.07588718-.51349715.07578581-.51269841.07588637-.51319767.07578528-.51249875.07588636-.51319766.07578528-.51249876.07588637-.51319766.07497306-.50560974c.03798558-.2907403.08318453-.64447994.1349083-1.06341444.05251852-.41933464.11154438-.89737526.17575833-1.42313934.06431531-.52656281.13371655-1.09975087.20689412-1.7121755.07317542-.611626.15012341-1.26109095.22932764-1.9379113.07880983-.6777184.16056845-1.38209411.24346461-2.10364153.0827975-.72174697.16663197-1.4601664.25008899-2.20577312.08345702-.74560671.1665355-1.49800139.24781913-2.24700004.0807876-.74899815.16007367-1.49300332.23654914-2.22482649.07651314-.74579923.15518756-1.48371422.2338141-2.20385964.07852517-.71934669.1576055-1.42381947.23621557-2.10103852.07940453-.67751936.1575559-1.33177734.23422425-1.95109374.07746199-.61931721.15285728-1.20798488.2264512-1.75402384.07279974-.54583848.14400728-1.0530416.2109091-1.50862886.06779817-.45688595.13299675-.86944527.19287173-1.2208041.06027798-.35365532.1186484-.66208626.17027405-.89733581.05482822-.24563503.1147218-.4566347.1667624-.58816264.07559444-.18396223.23973503-.4250177.4099077-.58521811.15548152-.120154.43052408-.2838564.66490983-.3804321.21778552-.08437954.50948786-.17192976.80639512-.23981908.29025292-.06508726.63982108-.12654186 1.01456067-.17803946.3715631-.05079553.79797287-.09635653 1.25928244-.1342666.45852965-.03710859.971015-.06968053 1.52425355-.09470739.55085762-.0250244 1.15537116-.04471323 1.80391387-.05765897.64774879-.0128451 1.34915162-.0196558 2.09696645-.02042468l1.06725814-.00109732 1.06725815-.00109731 1.06735735-.00109742 1.06725815-.00109732 1.06725815-.00109731 1.06725815-.00109732 1.06725815-.00109731 1.06725814-.00109732.04216255-.00004335.04216255-.00004335.04216256-.00004335.04216255-.00004335.04216255-.00004335.04216255-.00004335.04216254-.00004335.04216255-.00004335.02918346.03051758.02918346.03051759.02918345.03051758.02918346.03051758.02918346.03051759.02918345.03051758.02918346.03051759.02918345.03051758.60642194.63428718.606323.63418745.60642195.63428718.6064222.63418736.60642195.63428718.606323.63418745.60642194.63428718.60632273.63428728"/>
  <path class="logo-svg-file" d="M27.03014701 20.87665034c-4.8140825.000596-5.1132975.1320144-5.1624925 2.3006-.124815 2.2352792.1682325 2.3749168 5.2028625 2.4451584s5.1857975-.0632144 5.0899925-2.3694c-.0232325-2.2373168-.3163525-2.3770232-5.1303625-2.3763584Z"/>
  <path class="logo-svg-file" d="M24.51490813 23.30200416c.04652631 4.46718374.18997599 4.74474075 2.50949372 4.78788004 2.39137875.113255 2.53803285-.15894164 2.56515134-4.8308493.02711849-4.67190766-.11711359-4.81207771-2.58235749-4.72040515-2.39230668.02412979-2.53888733.29625855-2.49228757 4.76337441ZM64.5965621 23.32523406c-3.183469 3.297621-3.283482 3.59721-1.70049 5.192842 1.582723 1.695461 1.88061 1.595326 5.26276-1.802328s3.382688-3.597312 1.601284-5.19274c-1.682198-1.59553-1.980085-1.495395-5.163554 1.802226Zm-4.55198984-4.6997484c-3.183469 3.297621-3.283482 3.59721-1.70049 5.192842 1.582723 1.695461 1.88061 1.595326 5.26276-1.802328s3.382688-3.597312 1.601284-5.19274c-1.682198-1.59553-1.980085-1.495395-5.163554 1.802226Z"/>
</svg>